<?xml version="1.0" encoding="UTF-8"?>
<svg width="256px" height="256px" viewBox="0 0 256 256" version="1.1" xmlns="http://www.w3.org/2000/svg" xmlns:xlink="http://www.w3.org/1999/xlink">
    <title>Artboard</title>
    <defs>
        <linearGradient x1="13.419486%" y1="8.5%" x2="86.580514%" y2="91.5%" id="linearGradient-1">
            <stop stop-color="#E3702D" offset="0%"></stop>
            <stop stop-color="#EA7D31" offset="10.71%"></stop>
            <stop stop-color="#F69537" offset="35.03%"></stop>
            <stop stop-color="#FB9E3A" offset="50%"></stop>
            <stop stop-color="#EA7C31" offset="70.16%"></stop>
            <stop stop-color="#DE642B" offset="88.66%"></stop>
            <stop stop-color="#D95B29" offset="100%"></stop>
        </linearGradient>
        <ellipse id="path-2" cx="14.7790435" cy="99.0401247" rx="14.7790435" ry="15.7414768"></ellipse>
        <linearGradient x1="13.419486%" y1="8.5%" x2="86.580514%" y2="91.5%" id="linearGradient-3">
            <stop stop-color="#E3702D" offset="0%"></stop>
            <stop stop-color="#EA7D31" offset="10.71%"></stop>
            <stop stop-color="#F69537" offset="35.03%"></stop>
            <stop stop-color="#FB9E3A" offset="50%"></stop>
            <stop stop-color="#EA7C31" offset="70.16%"></stop>
            <stop stop-color="#DE642B" offset="88.66%"></stop>
            <stop stop-color="#D95B29" offset="100%"></stop>
        </linearGradient>
        <path d="M71.4320434,114.781601 L50.4950652,114.781601 C50.4950652,85.0778615 27.8876544,60.9982225 7.9929991e-15,60.9982225 L7.9929991e-15,38.6977971 C39.4508282,38.6977971 71.4320434,72.7616766 71.4320434,114.781601 Z" id="path-4"></path>
        <linearGradient x1="13.419486%" y1="8.5%" x2="86.580514%" y2="91.5%" id="linearGradient-5">
            <stop stop-color="#E3702D" offset="0%"></stop>
            <stop stop-color="#EA7D31" offset="10.71%"></stop>
            <stop stop-color="#F69537" offset="35.03%"></stop>
            <stop stop-color="#FB9E3A" offset="50%"></stop>
            <stop stop-color="#EA7C31" offset="70.16%"></stop>
            <stop stop-color="#DE642B" offset="88.66%"></stop>
            <stop stop-color="#D95B29" offset="100%"></stop>
        </linearGradient>
        <path d="M86.2110869,114.781601 C86.2110869,64.067899 47.6130685,22.9563203 3.99649955e-15,22.9563203 L3.99649955e-15,-8.29743603e-15 C59.5163357,-8.29743603e-15 107.763859,51.3894734 107.763859,114.781601 L86.2110869,114.781601 Z" id="path-6"></path>
        <path d="M100.325292,104.313274 C104.010068,104.313274 107.003558,107.467703 107.003558,111.356383 C107.003558,115.245063 104.010068,118.399492 100.325292,118.399492 C96.6363518,118.399492 93.6484144,115.245063 93.6484144,111.356383 C93.6484144,107.467703 96.6363518,104.313274 100.325292,104.313274 Z M136.422769,7.72729978 C140.114486,7.72729978 143.102423,10.880264 143.102423,14.7689443 C143.102423,18.6598207 140.114486,21.8120529 136.422769,21.8120529 C132.740075,21.8120529 129.74728,18.6598207 129.74728,14.7689443 C129.74728,10.880264 132.740075,7.72729978 136.422769,7.72729978 Z M18.2906192,21.5353358 L124.028902,21.5353358 C126.35748,26.262952 131.034071,29.5030308 136.422769,29.5030308 C144.126859,29.5030308 150.393546,22.8940313 150.393546,14.7689443 C150.393546,6.6460534 144.126859,0.0370538865 136.422769,0.0370538865 C130.578766,0.0370538865 125.568332,3.84594007 123.489615,9.23094234 L18.2906192,9.23094234 C8.06639002,9.23094234 0.0589952806,17.4094694 0.0589952806,27.8485848 L0.0589952806,146.56973 C0.0589952806,157.165505 8.40856264,166.118547 18.2906192,166.118547 L130.846674,166.118547 C140.748164,166.118547 148.804837,157.348519 148.804837,146.56973 L148.804837,76.1437682 C148.804837,65.5392083 140.748164,56.9126631 130.846674,56.9126631 L64.0751213,56.9126631 C53.8800428,56.9126631 45.2660377,65.719294 45.2660377,76.1437682 L45.2660377,98.2767425 C45.2660377,108.546021 53.703751,116.899509 64.0751213,116.899509 L87.3907503,116.899509 C89.4729366,122.282315 94.4833711,126.089737 100.325292,126.089737 C108.029382,126.089737 114.295374,119.480738 114.295374,111.356383 C114.295374,103.232028 108.029382,96.6222964 100.325292,96.6222964 C94.9345115,96.6222964 90.2565328,99.8653035 87.9293425,104.594384 L64.0751213,104.594384 C60.6402079,104.594384 56.9318339,102.1786 56.9318339,98.2767425 L56.9318339,76.1437682 C56.9318339,72.517896 60.3375968,69.2177885 64.0751213,69.2177885 L130.846674,69.2177885 C134.373898,69.2177885 137.138347,72.2594803 137.138347,76.1437682 L137.138347,146.56973 C137.138347,150.495745 134.257295,153.813422 130.846674,153.813422 L18.2906192,153.813422 C14.7932401,153.813422 11.7254855,150.427664 11.7254855,146.56973 L11.7254855,27.8485848 C11.7254855,24.2497986 14.5475421,21.5353358 18.2906192,21.5353358 L18.2906192,21.5353358 Z" id="path-7"></path>
        <polygon id="path-9" points="0.0593363845 0.0223374466 11.7932809 0.0223374466 11.7932809 118.421119 0.0593363845 118.421119"></polygon>
        <linearGradient x1="4.24651779%" y1="87.2468815%" x2="4.24651779%" y2="18.9262573%" id="linearGradient-11">
            <stop stop-color="#249184" offset="0%"></stop>
            <stop stop-color="#3FB5AF" offset="100%"></stop>
        </linearGradient>
        <path d="M113.449858,12.5114757 L0.938691548,12.5114757 C0.633749415,12.5114757 0.330267141,12.5028582 0.0284451984,12.4858403 L0.0284451984,0.00589510897 C0.327347386,0.0567509474 0.631360029,0.0831784884 0.938691548,0.0831784884 L113.449858,0.0831784884 L113.449858,12.5114757 L113.449858,12.5114757 Z" id="path-12"></path>
        <linearGradient x1="11.5216458%" y1="95.6380306%" x2="86.9972899%" y2="95.6380306%" id="linearGradient-14">
            <stop stop-color="#249184" offset="0%"></stop>
            <stop stop-color="#E15F38" offset="100%"></stop>
        </linearGradient>
        <polygon id="path-15" points="0.0380214692 0.00994460649 11.8187426 0.00994460649 11.8187426 70.4292745 0.0380214692 70.4292745"></polygon>
        <linearGradient x1="94.2728796%" y1="45.9937409%" x2="94.2728796%" y2="87.8107286%" id="linearGradient-17">
            <stop stop-color="#B1343A" offset="0%"></stop>
            <stop stop-color="#E15F38" offset="100%"></stop>
        </linearGradient>
        <polygon id="path-18" points="0.0807205827 0.0559700252 66.7415863 0.0559700252 66.7415863 12.4349194 0.0807205827 12.4349194"></polygon>
        <linearGradient x1="86.34263%" y1="38.4158329%" x2="43.4002613%" y2="38.4158329%" id="linearGradient-20">
            <stop stop-color="#B1343A" offset="0%"></stop>
            <stop stop-color="#BA503D" offset="100%"></stop>
        </linearGradient>
        <polygon id="path-21" points="0.0116412869 0.0098845234 11.6912797 0.0098845234 11.6912797 22.1392692 0.0116412869 22.1392692"></polygon>
        <linearGradient x1="35.3073162%" y1="46.1281791%" x2="35.3073162%" y2="58.7012386%" id="linearGradient-23">
            <stop stop-color="#BA503D" offset="0%"></stop>
            <stop stop-color="#DF5430" offset="100%"></stop>
        </linearGradient>
        <path d="M0.0284580745,21.5947081 L0.0284580745,9.25432761 C0.3299276,9.23987192 0.633531924,9.23256507 0.93911646,9.23256507 L106.143759,9.23256507 C108.222587,3.846319 113.23329,0.0365530591 119.077607,0.0365530591 C126.78211,0.0365530591 133.049134,6.64707909 133.049134,14.7718461 C133.049134,22.8988098 126.78211,29.5093359 119.077607,29.5093359 C113.68862,29.5093359 109.011778,26.2685086 106.683075,21.5398005 L0.93911646,21.5398005 C0.62887608,21.5398005 0.324962514,21.5584504 0.0284580745,21.5947081 L0.0284580745,21.5947081 Z M119.077607,7.7285752 C115.394716,7.7285752 112.401759,10.8822677 112.401759,14.7718461 C112.401759,18.6636213 115.394716,21.8165815 119.077607,21.8165815 C122.769522,21.8165815 125.75762,18.6636213 125.75762,14.7718461 C125.75762,10.8822677 122.769522,7.7285752 119.077607,7.7285752 Z" id="path-24"></path>
        <linearGradient x1="101.548008%" y1="9.4529907%" x2="13.0322575%" y2="9.4529907%" id="linearGradient-26">
            <stop stop-color="#2270A8" offset="0%"></stop>
            <stop stop-color="#3FB5AF" offset="100%"></stop>
        </linearGradient>
        <path d="M0.0812582658,20.3387206 L0.0812582658,8.04819753 L23.9952099,8.04819753 C26.3282274,3.32472921 31.0179197,0.0855706027 36.4221986,0.0855706027 C44.1455791,0.0855706027 50.4272619,6.68745843 50.4272619,14.8021723 C50.4272619,22.9168861 44.1455791,29.5180427 36.4221986,29.5180427 C30.5656497,29.5180427 25.5426692,25.7151389 23.4552691,20.3387206 L0.0812582658,20.3387206 Z M36.4221986,7.7674217 C32.7240214,7.7674217 29.7286022,10.9181067 29.7286022,14.8021723 C29.7286022,18.6862378 32.7240214,21.8369228 36.4221986,21.8369228 C40.116201,21.8369228 43.1171866,18.6862378 43.1171866,14.8021723 C43.1171866,10.9181067 40.116201,7.7674217 36.4221986,7.7674217 Z" id="path-27"></path>
        <linearGradient x1="42.5824442%" y1="67.0269317%" x2="77.7259108%" y2="67.0269317%" id="linearGradient-29">
            <stop stop-color="#DF5430" offset="0%"></stop>
            <stop stop-color="#F0A44C" offset="100%"></stop>
        </linearGradient>
    </defs>
    <g id="Artboard" stroke="none" stroke-width="1" fill="none" fill-rule="evenodd">
        <rect fill="#FFFFFF" opacity="0" x="0" y="0" width="256" height="256"></rect>
        <g id="no-text" transform="translate(-63.000000, 2.000000)">
            <g id="Logo" transform="translate(80.040984, 0.439024)">
                <g id="atom" transform="translate(121.967213, 0.000000)" fill-rule="nonzero">
                    <g id="Group">
                        <g id="Oval">
                            <use fill="#FFFFFF" xlink:href="#path-2"></use>
                            <use fill="url(#linearGradient-1)" xlink:href="#path-2"></use>
                        </g>
                        <g id="Path">
                            <use fill="#FFFFFF" xlink:href="#path-4"></use>
                            <use fill="url(#linearGradient-3)" xlink:href="#path-4"></use>
                        </g>
                        <g id="Path">
                            <use fill="#FFFFFF" xlink:href="#path-6"></use>
                            <use fill="url(#linearGradient-5)" xlink:href="#path-6"></use>
                        </g>
                    </g>
                </g>
                <g id="Center" transform="translate(0.000000, 85.609756)">
                    <g id="-Gumroad_Logo_Color" transform="translate(0.241388, 0.000000)">
                        <g id="Group-8">
                            <mask id="mask-8" fill="white">
                                <use xlink:href="#path-7"></use>
                            </mask>
                            <g id="Clip-2"></g>
                            <polygon id="Fill-1" fill="#3EB5AF" mask="url(#mask-8)" points="0.0589952806 28.533789 17.8179629 28.533789 17.8179629 3.43159651 0.0589952806 3.43159651"></polygon>
                            <polygon id="Fill-3" fill="#229183" mask="url(#mask-8)" points="0.0589952806 166.118547 17.8179629 166.118547 17.8179629 146.077056 0.0589952806 146.077056"></polygon>
                            <polygon id="Fill-4" fill="#E15E38" mask="url(#mask-8)" points="130.409415 166.118547 150.393546 166.118547 150.393546 146.077056 130.409415 146.077056"></polygon>
                            <polygon id="Fill-5" fill="#B03439" mask="url(#mask-8)" points="130.409415 76.6357097 150.393546 76.6357097 150.393546 51.5335172 130.409415 51.5335172"></polygon>
                            <polygon id="Fill-6" fill="#B94F3C" mask="url(#mask-8)" points="42.2010594 76.6357097 64.5130745 76.6357097 64.5130745 51.5335172 42.2010594 51.5335172"></polygon>
                            <polygon id="Fill-7" fill="#DF542F" mask="url(#mask-8)" points="42.2010594 122.885529 64.5130745 122.885529 64.5130745 97.7840689 42.2010594 97.7840689"></polygon>
                        </g>
                        <g id="Group-11" transform="translate(0.000000, 28.249378)">
                            <mask id="mask-10" fill="white">
                                <use xlink:href="#path-9"></use>
                            </mask>
                            <g id="Clip-10"></g>
                            <path d="M101.145104,76.3368396 C104.851185,76.3368396 107.861983,79.4878322 107.861983,83.3722769 C107.861983,87.2567216 104.851185,90.4077141 101.145104,90.4077141 C97.434835,90.4077141 94.4296217,87.2567216 94.4296217,83.3722769 C94.4296217,79.4878322 97.434835,76.3368396 101.145104,76.3368396 Z M137.451293,-20.1439338 C141.164354,-20.1439338 144.169568,-16.9944038 144.169568,-13.109959 C144.169568,-9.22332054 141.164354,-6.07452178 137.451293,-6.07452178 C133.747306,-6.07452178 130.737206,-9.22332054 130.737206,-13.109959 C130.737206,-16.9944038 133.747306,-20.1439338 137.451293,-20.1439338 Z M18.6361164,-6.35093746 L124.985765,-6.35093746 C127.327807,-1.62847059 132.031438,1.60807918 137.451293,1.60807918 C145.199926,1.60807918 151.502847,-4.99372184 151.502847,-13.109959 C151.502847,-21.2240025 145.199926,-27.8258035 137.451293,-27.8258035 C131.5735,-27.8258035 126.534096,-24.0210659 124.443361,-18.641929 L18.6361164,-18.641929 C8.35277192,-18.641929 0.299079352,-10.4723099 0.299079352,-0.0445648507 L0.299079352,118.547269 C0.299079352,129.131504 8.69692295,138.074794 18.6361164,138.074794 L131.842957,138.074794 C141.801697,138.074794 149.904953,129.314318 149.904953,118.547269 L149.904953,48.1980156 C149.904953,37.6050062 141.801697,28.9878569 131.842957,28.9878569 L64.6853392,28.9878569 C54.4313139,28.9878569 45.7675037,37.7848957 45.7675037,48.1980156 L45.7675037,70.3068827 C45.7675037,80.5649758 54.2540028,88.9093656 64.6853392,88.9093656 L88.1357764,88.9093656 C90.2300018,94.2863088 95.269406,98.0895838 101.145104,98.0895838 C108.893738,98.0895838 115.19596,91.4877828 115.19596,83.3722769 C115.19596,75.2567709 108.893738,68.6542387 101.145104,68.6542387 C95.7231548,68.6542387 91.0181286,71.8937135 88.6774827,76.6176429 L64.6853392,76.6176429 C61.2305655,76.6176429 57.5007502,74.2044901 57.5007502,70.3068827 L57.5007502,48.1980156 C57.5007502,44.5760927 60.9262047,41.2795797 64.6853392,41.2795797 L131.842957,41.2795797 C135.390575,41.2795797 138.171008,44.3179585 138.171008,48.1980156 L138.171008,118.547269 C138.171008,122.469008 135.273298,125.783071 131.842957,125.783071 L18.6361164,125.783071 C15.1185159,125.783071 12.0330239,122.401001 12.0330239,118.547269 L12.0330239,-0.0445648507 C12.0330239,-3.63943124 14.8713973,-6.35093746 18.6361164,-6.35093746 L18.6361164,-6.35093746 Z" id="Fill-9" fill="url(#linearGradient-11)" mask="url(#mask-10)"></path>
                        </g>
                        <g id="Group-14" transform="translate(17.192337, 153.605995)">
                            <mask id="mask-13" fill="white">
                                <use xlink:href="#path-12"></use>
                            </mask>
                            <g id="Clip-13"></g>
                            <path d="M82.9406483,-49.9124548 C86.6239546,-49.9124548 89.6162507,-46.7264513 89.6162507,-42.7988462 C89.6162507,-38.871241 86.6239546,-35.6852375 82.9406483,-35.6852375 C79.2531793,-35.6852375 76.2664335,-38.871241 76.2664335,-42.7988462 C76.2664335,-46.7264513 79.2531793,-49.9124548 82.9406483,-49.9124548 Z M119.023729,-147.465235 C122.713974,-147.465235 125.700719,-144.28071 125.700719,-140.353105 C125.700719,-136.423281 122.713974,-133.239496 119.023729,-133.239496 C115.342504,-133.239496 112.350902,-136.423281 112.350902,-140.353105 C112.350902,-144.28071 115.342504,-147.465235 119.023729,-147.465235 Z M0.938691548,-133.518983 L106.634805,-133.518983 C108.962455,-128.744044 113.63718,-125.471533 119.023729,-125.471533 C126.724747,-125.471533 132.988934,-132.146687 132.988934,-140.353105 C132.988934,-148.557304 126.724747,-155.232458 119.023729,-155.232458 C113.182057,-155.232458 108.173621,-151.385446 106.095734,-145.946541 L0.938691548,-145.946541 C-9.28146011,-145.946541 -17.2856614,-137.686148 -17.2856614,-127.14254 L-17.2856614,-7.23302121 C-17.2856614,3.46881552 -8.93942394,12.5114757 0.938691548,12.5114757 L113.449858,12.5114757 C123.3474,12.5114757 131.40086,3.65366139 131.40086,-7.23302121 L131.40086,-78.3639317 C131.40086,-89.0746411 123.3474,-97.7875362 113.449858,-97.7875362 L46.7049344,-97.7875362 C36.5139218,-97.7875362 27.9033521,-88.8927527 27.9033521,-78.3639317 L27.9033521,-56.0094111 C27.9033521,-45.6373394 36.3377003,-37.2002343 46.7049344,-37.2002343 L70.0112649,-37.2002343 C72.0926209,-31.7635475 77.1010572,-27.9180139 82.9406483,-27.9180139 C90.6416654,-27.9180139 96.9051594,-34.5931681 96.9051594,-42.7988462 C96.9051594,-51.0045242 90.6416654,-57.6804178 82.9406483,-57.6804178 C77.5520177,-57.6804178 72.8759046,-54.4049489 70.5496424,-49.6285315 L46.7049344,-49.6285315 C43.2713909,-49.6285315 39.5644959,-52.0684971 39.5644959,-56.0094111 L39.5644959,-78.3639317 C39.5644959,-82.0260982 42.9689005,-85.359239 46.7049344,-85.359239 L113.449858,-85.359239 C116.975675,-85.359239 119.739022,-82.2871006 119.739022,-78.3639317 L119.739022,-7.23302121 C119.739022,-3.26770752 116.859119,0.0831784884 113.449858,0.0831784884 L0.938691548,0.0831784884 C-2.55729272,0.0831784884 -5.62382386,-3.33647018 -5.62382386,-7.23302121 L-5.62382386,-127.14254 C-5.62382386,-130.777349 -2.80289272,-133.518983 0.938691548,-133.518983 L0.938691548,-133.518983 Z" id="Fill-12" fill="url(#linearGradient-14)" mask="url(#mask-13)"></path>
                        </g>
                        <g id="Group-17" transform="translate(136.930118, 76.080712)">
                            <mask id="mask-16" fill="white">
                                <use xlink:href="#path-15"></use>
                            </mask>
                            <g id="Clip-16"></g>
                            <path d="M-37.1354836,28.1767982 C-33.4146288,28.1767982 -30.3918285,31.3309295 -30.3918285,35.2192436 C-30.3918285,39.1075577 -33.4146288,42.261689 -37.1354836,42.261689 C-40.8605436,42.261689 -43.877737,39.1075577 -43.877737,35.2192436 C-43.877737,31.3309295 -40.8605436,28.1767982 -37.1354836,28.1767982 Z M-0.684563066,-68.4000814 C3.04330031,-68.4000814 6.06049374,-65.2474141 6.06049374,-61.3591 C6.06049374,-57.46859 3.04330031,-54.3166546 -0.684563066,-54.3166546 C-4.40331529,-54.3166546 -7.42541472,-57.46859 -7.42541472,-61.3591 C-7.42541472,-65.2474141 -4.40331529,-68.4000814 -0.684563066,-68.4000814 Z M-119.973388,-54.5933457 L-13.1997833,-54.5933457 C-10.8484049,-49.8661747 -6.1260241,-46.6264009 -0.684563066,-46.6264009 C7.09496006,-46.6264009 13.4230064,-53.2347781 13.4230064,-61.3591 C13.4230064,-69.481226 7.09496006,-76.0896032 -0.684563066,-76.0896032 C-6.58578691,-76.0896032 -11.6452804,-72.2810757 -13.7443499,-66.8965805 L-119.973388,-66.8965805 C-130.297726,-66.8965805 -138.383524,-58.7188235 -138.383524,-48.2806912 L-138.383524,70.4292745 C-138.383524,81.024052 -129.952203,89.9762511 -119.973388,89.9762511 L-6.31525575,89.9762511 C3.68318361,89.9762511 11.8187426,81.2070488 11.8187426,70.4292745 L11.8187426,0.00994460649 C11.8187426,-10.5936168 3.68318361,-19.2193497 -6.31525575,-19.2193497 L-73.7405929,-19.2193497 C-84.0354952,-19.2193497 -92.733843,-10.413548 -92.733843,0.00994460649 L-92.733843,22.1408347 C-92.733843,32.4091461 -84.2135131,40.7618479 -73.7405929,40.7618479 L-50.1966722,40.7618479 C-48.0940983,46.1441472 -43.0346049,49.9512107 -37.1354836,49.9512107 C-29.3559605,49.9512107 -23.028615,43.3428335 -23.028615,35.2192436 C-23.028615,27.0956536 -29.3559605,20.4865445 -37.1354836,20.4865445 C-42.5790472,20.4865445 -47.3028297,23.7292462 -49.6528064,28.4578811 L-73.7405929,28.4578811 C-77.2091388,28.4578811 -80.9538228,26.0423246 -80.9538228,22.1408347 L-80.9538228,0.00994460649 C-80.9538228,-3.61558621 -77.5147129,-6.91538288 -73.7405929,-6.91538288 L-6.31525575,-6.91538288 C-2.7534957,-6.91538288 0.0380214692,-3.87397756 0.0380214692,0.00994460649 L0.0380214692,70.4292745 C0.0380214692,74.3549199 -2.87123983,77.6722843 -6.31525575,77.6722843 L-119.973388,77.6722843 C-123.505011,77.6722843 -126.602803,74.2868452 -126.602803,70.4292745 L-126.602803,-48.2806912 C-126.602803,-51.8791385 -123.753115,-54.5933457 -119.973388,-54.5933457 L-119.973388,-54.5933457 Z" id="Fill-15" fill="url(#linearGradient-17)" mask="url(#mask-16)"></path>
                        </g>
                        <g id="Group-20" transform="translate(64.052866, 56.819773)">
                            <mask id="mask-19" fill="white">
                                <use xlink:href="#path-18"></use>
                            </mask>
                            <g id="Clip-19"></g>
                            <path d="M36.2707995,47.7409586 C39.9494671,47.7409586 42.9379948,50.9143117 42.9379948,54.8263219 C42.9379948,58.7383321 39.9494671,61.9116853 36.2707995,61.9116853 C32.5879745,61.9116853 29.6049901,58.7383321 29.6049901,54.8263219 C29.6049901,50.9143117 32.5879745,47.7409586 36.2707995,47.7409586 Z M72.308438,-49.4244781 C75.9940347,-49.4244781 78.977019,-46.2525978 78.977019,-42.3405876 C78.977019,-38.4263681 75.9940347,-35.2552243 72.308438,-35.2552243 C68.6318491,-35.2552243 65.6440144,-38.4263681 65.6440144,-42.3405876 C65.6440144,-46.2525978 68.6318491,-49.4244781 72.308438,-49.4244781 Z M-45.6278848,-35.5336015 L59.9351159,-35.5336015 C62.2598342,-30.7776223 66.9286724,-27.5181048 72.308438,-27.5181048 C79.9997565,-27.5181048 86.2560552,-34.1667546 86.2560552,-42.3405876 C86.2560552,-50.5122113 79.9997565,-57.1608611 72.308438,-57.1608611 C66.4741224,-57.1608611 61.4719937,-53.3291238 59.3967236,-47.9118145 L-45.6278848,-47.9118145 C-55.8351653,-47.9118145 -63.8292862,-39.6842208 -63.8292862,-29.1824766 L-63.8292862,90.2509292 C-63.8292862,100.910273 -55.4935599,109.917029 -45.6278848,109.917029 L66.7415863,109.917029 C76.6266629,109.917029 84.6699806,101.094385 84.6699806,90.2509292 L84.6699806,19.4024511 C84.6699806,8.73426972 76.6266629,0.0559700252 66.7415863,0.0559700252 L0.0807205827,0.0559700252 C-10.0974576,0.0559700252 -18.6971833,8.91543586 -18.6971833,19.4024511 L-18.6971833,41.6682109 C-18.6971833,51.9990992 -10.2734572,60.4027039 0.0807205827,60.4027039 L23.3576993,60.4027039 C25.4364341,65.8178039 30.4385628,69.6480683 36.2707995,69.6480683 C43.9621181,69.6480683 50.2177238,62.9994185 50.2177238,54.8263219 C50.2177238,46.6532254 43.9621181,40.0038391 36.2707995,40.0038391 C30.8889553,40.0038391 26.2187312,43.2663024 23.8953987,48.0237545 L0.0807205827,48.0237545 C-3.34849883,48.0237545 -7.05072541,45.5934771 -7.05072541,41.6682109 L-7.05072541,19.4024511 C-7.05072541,15.7548256 -3.65060828,12.4349194 0.0807205827,12.4349194 L66.7415863,12.4349194 C70.262963,12.4349194 73.0228298,15.4948596 73.0228298,19.4024511 L73.0228298,90.2509292 C73.0228298,94.2004982 70.1465538,97.5380792 66.7415863,97.5380792 L-45.6278848,97.5380792 C-49.1194662,97.5380792 -52.1821354,94.1320086 -52.1821354,90.2509292 L-52.1821354,-29.1824766 C-52.1821354,-32.8028535 -49.3647569,-35.5336015 -45.6278848,-35.5336015 L-45.6278848,-35.5336015 Z" id="Fill-18" fill="url(#linearGradient-20)" mask="url(#mask-19)"></path>
                        </g>
                        <g id="Group-23" transform="translate(45.034794, 76.080712)">
                            <mask id="mask-22" fill="white">
                                <use xlink:href="#path-21"></use>
                            </mask>
                            <g id="Clip-22"></g>
                            <path d="M55.1362268,28.1748221 C58.8253748,28.1748221 61.8224167,31.3287388 61.8224167,35.2167884 C61.8224167,39.104838 58.8253748,42.2587548 55.1362268,42.2587548 C51.4429095,42.2587548 48.4514266,39.104838 48.4514266,35.2167884 C48.4514266,31.3287388 51.4429095,28.1748221 55.1362268,28.1748221 Z M91.2765357,-68.395488 C94.9726326,-68.395488 97.9641155,-65.2430352 97.9641155,-61.3549856 C97.9641155,-57.4647402 94.9726326,-54.3130192 91.2765357,-54.3130192 C87.5894724,-54.3130192 84.5931253,-57.4647402 84.5931253,-61.3549856 C84.5931253,-65.2430352 87.5894724,-68.395488 91.2765357,-68.395488 Z M-26.9957853,-54.5896914 L78.8679623,-54.5896914 C81.1993037,-49.862842 85.8814434,-46.6232886 91.2765357,-46.6232886 C98.9897667,-46.6232886 105.263889,-53.2312163 105.263889,-61.3549856 C105.263889,-69.4765591 98.9897667,-76.0844867 91.2765357,-76.0844867 C85.4255984,-76.0844867 80.4092187,-72.2762183 78.3280361,-66.8920893 L-26.9957853,-66.8920893 C-37.2321461,-66.8920893 -45.2490421,-58.7148886 -45.2490421,-48.2774664 L-45.2490421,70.4244243 C-45.2490421,81.0184811 -36.8895675,89.9700712 -26.9957853,89.9700712 L85.6938242,89.9700712 C95.6070633,89.9700712 103.673296,81.2014654 103.673296,70.4244243 L103.673296,0.0098845234 C103.673296,-10.5929555 95.6070633,-19.2181017 85.6938242,-19.2181017 L18.843043,-19.2181017 C8.63586737,-19.2181017 0.0116412869,-10.412899 0.0116412869,0.0098845234 L0.0116412869,22.1392692 C0.0116412869,32.4068821 8.45936641,40.7590158 18.843043,40.7590158 L42.1863374,40.7590158 C44.2709944,46.1409489 49.2873741,49.9477534 55.1362268,49.9477534 C62.8494578,49.9477534 69.1228856,43.3398258 69.1228856,35.2167884 C69.1228856,27.0937511 62.8494578,20.4850915 55.1362268,20.4850915 C49.7390498,20.4850915 45.0555203,23.7275726 42.7255687,28.4558859 L18.843043,28.4558859 C15.4040538,28.4558859 11.6912797,26.0404937 11.6912797,22.1392692 L11.6912797,0.0098845234 C11.6912797,-3.61539967 15.1010837,-6.91497188 18.843043,-6.91497188 L85.6938242,-6.91497188 C89.2252332,-6.91497188 91.9929629,-3.87377345 91.9929629,0.0098845234 L91.9929629,70.4244243 C91.9929629,74.3498027 89.1084924,77.6669414 85.6938242,77.6669414 L-26.9957853,77.6669414 C-30.4973142,77.6669414 -33.5687088,74.2817325 -33.5687088,70.4244243 L-33.5687088,-48.2774664 C-33.5687088,-51.8756689 -30.7433037,-54.5896914 -26.9957853,-54.5896914 L-26.9957853,-54.5896914 Z" id="Fill-21" fill="url(#linearGradient-23)" mask="url(#mask-22)"></path>
                        </g>
                        <g id="Group-26" transform="translate(17.192337, 0.000000)">
                            <mask id="mask-25" fill="white">
                                <use xlink:href="#path-24"></use>
                            </mask>
                            <g id="Clip-25"></g>
                            <path d="M82.9781926,104.336859 C86.6631662,104.336859 89.6568168,107.492016 89.6568168,111.381594 C89.6568168,115.271172 86.6631662,118.426329 82.9781926,118.426329 C79.2890544,118.426329 76.3009565,115.271172 76.3009565,111.381594 C76.3009565,107.492016 79.2890544,104.336859 82.9781926,104.336859 Z M119.077607,7.7285752 C122.769522,7.7285752 125.75762,10.8822677 125.75762,14.7718461 C125.75762,18.6636213 122.769522,21.8165815 119.077607,21.8165815 C115.394716,21.8165815 112.401759,18.6636213 112.401759,14.7718461 C112.401759,10.8822677 115.394716,7.7285752 119.077607,7.7285752 Z M0.93911646,21.5398005 L106.683075,21.5398005 C109.011778,26.2685086 113.68862,29.5093359 119.077607,29.5093359 C126.78211,29.5093359 133.049134,22.8988098 133.049134,14.7718461 C133.049134,6.64707909 126.78211,0.0365530591 119.077607,0.0365530591 C113.23329,0.0365530591 108.222587,3.846319 106.143759,9.23256507 L0.93911646,9.23256507 C-9.28566149,9.23256507 -17.293486,17.4129812 -17.293486,27.8545077 L-17.293486,146.603074 C-17.293486,157.201297 -8.9434705,166.156407 0.93911646,166.156407 L113.501213,166.156407 C123.403235,166.156407 131.46034,157.384353 131.46034,146.603074 L131.46034,76.1608461 C131.46034,65.5538368 123.403235,56.925299 113.501213,56.925299 L46.7260761,56.925299 C36.5304503,56.925299 27.9159829,65.7339641 27.9159829,76.1608461 L27.9159829,98.2989325 C27.9159829,108.570583 36.3541491,116.926001 46.7260761,116.926001 L70.0429565,116.926001 C72.1252547,122.31005 77.1359581,126.118352 82.9781926,126.118352 C90.6826957,126.118352 96.9490249,119.507826 96.9490249,111.381594 C96.9490249,103.255363 90.6826957,96.6441043 82.9781926,96.6441043 C77.5871227,96.6441043 72.9088929,99.8878604 70.5815777,104.618033 L46.7260761,104.618033 C43.2909783,104.618033 39.5824053,102.201691 39.5824053,98.2989325 L39.5824053,76.1608461 C39.5824053,72.5341364 42.9883509,69.2332667 46.7260761,69.2332667 L113.501213,69.2332667 C117.028626,69.2332667 119.793224,72.275661 119.793224,76.1608461 L119.793224,146.603074 C119.793224,150.529996 116.912017,153.848439 113.501213,153.848439 L0.93911646,153.848439 C-2.55845031,153.848439 -5.62636957,150.461899 -5.62636957,146.603074 L-5.62636957,27.8545077 C-5.62636957,24.2548903 -2.80416149,21.5398005 0.93911646,21.5398005 L0.93911646,21.5398005 Z" id="Fill-24" fill="url(#linearGradient-26)" mask="url(#mask-25)"></path>
                        </g>
                        <g id="Group-29" transform="translate(63.900722, 96.625715)">
                            <mask id="mask-28" fill="white">
                                <use xlink:href="#path-27"></use>
                            </mask>
                            <g id="Clip-28"></g>
                            <path d="M36.4221986,7.7674217 C40.116201,7.7674217 43.1171866,10.9181067 43.1171866,14.8021723 C43.1171866,18.6862378 40.116201,21.8369228 36.4221986,21.8369228 C32.7240214,21.8369228 29.7286022,18.6862378 29.7286022,14.8021723 C29.7286022,10.9181067 32.7240214,7.7674217 36.4221986,7.7674217 Z M72.610063,-88.7039347 C76.3110234,-88.7039347 79.3064426,-85.5547121 79.3064426,-81.6706465 C79.3064426,-77.7843873 76.3110234,-74.6358959 72.610063,-74.6358959 C68.9181479,-74.6358959 65.9178582,-77.7843873 65.9178582,-81.6706465 C65.9178582,-85.5547121 68.9181479,-88.7039347 72.610063,-88.7039347 Z M-45.8178873,-74.9122846 L60.1851616,-74.9122846 C62.5195708,-70.1902787 67.2078714,-66.9540448 72.610063,-66.9540448 C80.3334434,-66.9540448 86.615822,-73.5552015 86.615822,-81.6706465 C86.615822,-89.7838979 80.3334434,-96.3850546 72.610063,-96.3850546 C66.7514266,-96.3850546 61.7284461,-92.5806884 59.644525,-87.2020765 L-45.8178873,-87.2020765 C-56.0677177,-87.2020765 -64.0951627,-79.0332548 -64.0951627,-68.6065276 L-64.0951627,49.9737315 C-64.0951627,60.5569328 -55.7246882,69.4993504 -45.8178873,69.4993504 L67.0200054,69.4993504 C76.9462888,69.4993504 85.0231357,60.7397296 85.0231357,49.9737315 L85.0231357,-20.3686558 C85.0231357,-30.9606313 76.9462888,-39.5769395 67.0200054,-39.5769395 L0.0812582658,-39.5769395 C-10.1393485,-39.5769395 -18.7749229,-30.7807593 -18.7749229,-20.3686558 L-18.7749229,1.73805333 C-18.7749229,11.9951452 -10.3160818,20.3387206 0.0812582658,20.3387206 L23.4552691,20.3387206 C25.5426692,25.7151389 30.5656497,29.5180427 36.4221986,29.5180427 C44.1455791,29.5180427 50.4272619,22.9168861 50.4272619,14.8021723 C50.4272619,6.68745843 44.1455791,0.0855706027 36.4221986,0.0855706027 C31.0179197,0.0855706027 26.3282274,3.32472921 23.9952099,8.04819753 L0.0812582658,8.04819753 C-3.36225614,8.04819753 -7.07991576,5.63528028 -7.07991576,1.73805333 L-7.07991576,-20.3686558 C-7.07991576,-23.9902252 -3.66562496,-27.2864164 0.0812582658,-27.2864164 L67.0200054,-27.2864164 C70.5560612,-27.2864164 73.3274328,-24.2483343 73.3274328,-20.3686558 L73.3274328,49.9737315 C73.3274328,53.8950876 70.4391668,57.2088273 67.0200054,57.2088273 L-45.8178873,57.2088273 C-49.3240237,57.2088273 -52.3994598,53.8270872 -52.3994598,49.9737315 L-52.3994598,-68.6065276 C-52.3994598,-72.2010431 -49.5703369,-74.9122846 -45.8178873,-74.9122846 L-45.8178873,-74.9122846 Z" id="Fill-27" fill="url(#linearGradient-29)" mask="url(#mask-28)"></path>
                        </g>
                    </g>
                </g>
            </g>
        </g>
    </g>
</svg>