<?xml version="1.0" encoding="UTF-8"?>
<svg width="732px" height="574px" viewBox="0 0 732 574" version="1.1" xmlns="http://www.w3.org/2000/svg" xmlns:xlink="http://www.w3.org/1999/xlink">
    <!-- Generator: Sketch 64 (93537) - https://sketch.com -->
    <title>no-text</title>
    <desc>Created with Sketch.</desc>
    <defs>
        <linearGradient x1="10.6879334%" y1="8.5%" x2="89.3120666%" y2="91.5%" id="linearGradient-1">
            <stop stop-color="#E3702D" offset="0%"></stop>
            <stop stop-color="#EA7D31" offset="10.71%"></stop>
            <stop stop-color="#F69537" offset="35.03%"></stop>
            <stop stop-color="#FB9E3A" offset="50%"></stop>
            <stop stop-color="#EA7C31" offset="70.16%"></stop>
            <stop stop-color="#DE642B" offset="88.66%"></stop>
            <stop stop-color="#D95B29" offset="100%"></stop>
        </linearGradient>
        <ellipse id="path-2" cx="34.8976123" cy="225.591395" rx="34.8976123" ry="35.855586"></ellipse>
        <linearGradient x1="10.6879334%" y1="8.5%" x2="89.3120666%" y2="91.5%" id="linearGradient-3">
            <stop stop-color="#E3702D" offset="0%"></stop>
            <stop stop-color="#EA7D31" offset="10.71%"></stop>
            <stop stop-color="#F69537" offset="35.03%"></stop>
            <stop stop-color="#FB9E3A" offset="50%"></stop>
            <stop stop-color="#EA7C31" offset="70.16%"></stop>
            <stop stop-color="#DE642B" offset="88.66%"></stop>
            <stop stop-color="#D95B29" offset="100%"></stop>
        </linearGradient>
        <path d="M168.671793,261.446981 L119.233509,261.446981 C119.233509,193.788462 65.8508485,138.940396 1.88737914e-14,138.940396 L1.88737914e-14,88.1449822 C93.1548589,88.1449822 168.671793,165.73493 168.671793,261.446981 Z" id="path-4"></path>
        <linearGradient x1="10.6879334%" y1="8.5%" x2="89.3120666%" y2="91.5%" id="linearGradient-5">
            <stop stop-color="#E3702D" offset="0%"></stop>
            <stop stop-color="#EA7D31" offset="10.71%"></stop>
            <stop stop-color="#F69537" offset="35.03%"></stop>
            <stop stop-color="#FB9E3A" offset="50%"></stop>
            <stop stop-color="#EA7C31" offset="70.16%"></stop>
            <stop stop-color="#DE642B" offset="88.66%"></stop>
            <stop stop-color="#D95B29" offset="100%"></stop>
        </linearGradient>
        <path d="M203.569405,261.446981 C203.569405,145.932437 112.428278,52.2893962 9.43689571e-15,52.2893962 L9.43689571e-15,-1.88997154e-14 C140.535347,-1.88997154e-14 254.461756,117.053801 254.461756,261.446981 L203.569405,261.446981 Z" id="path-6"></path>
        <path d="M236.897141,237.602458 C245.597967,237.602458 252.666466,244.787545 252.666466,253.645094 C252.666466,262.502644 245.597967,269.687731 236.897141,269.687731 C228.186482,269.687731 221.131095,262.502644 221.131095,253.645094 C221.131095,244.787545 228.186482,237.602458 236.897141,237.602458 Z M322.133764,17.6010717 C330.850979,17.6010717 337.906367,24.7828235 337.906367,33.640373 C337.906367,42.5029249 330.850979,49.6830093 322.133764,49.6830093 C313.437856,49.6830093 306.370996,42.5029249 306.370996,33.640373 C306.370996,24.7828235 313.437856,17.6010717 322.133764,17.6010717 Z M43.1894621,49.0527093 L292.868245,49.0527093 C298.366695,59.8211683 309.409483,67.2013479 322.133764,67.2013479 C340.325357,67.2013479 355.122824,52.1475157 355.122824,33.640373 C355.122824,15.1382328 340.325357,0.0844005193 322.133764,0.0844005193 C308.334376,0.0844005193 296.503286,8.76019683 291.594834,21.0260353 L43.1894621,21.0260353 C19.0470887,21.0260353 0.139304985,39.6549026 0.139304985,63.4328875 L0.139304985,333.853273 C0.139304985,357.988095 19.8550576,378.381135 43.1894621,378.381135 L308.966985,378.381135 C332.347278,378.381135 351.371423,358.40496 351.371423,333.853273 L351.371423,173.438583 C351.371423,149.283752 332.347278,129.634399 308.966985,129.634399 L151.299964,129.634399 C127.226424,129.634399 106.886257,149.693947 106.886257,173.438583 L106.886257,223.85258 C106.886257,247.243714 126.810147,266.271104 151.299964,266.271104 L206.354933,266.271104 C211.271579,278.531941 223.10267,287.204402 236.897141,287.204402 C255.088733,287.204402 269.884562,272.15057 269.884562,253.645094 C269.884562,235.139619 255.088733,220.08412 236.897141,220.08412 C224.167943,220.08412 213.121877,227.470969 207.626705,238.242763 L151.299964,238.242763 C143.189136,238.242763 134.432588,232.740144 134.432588,223.85258 L134.432588,173.438583 C134.432588,165.179652 142.474583,157.662741 151.299964,157.662741 L308.966985,157.662741 C317.295784,157.662741 323.823452,164.591038 323.823452,173.438583 L323.823452,333.853273 C323.823452,342.795863 317.020452,350.352794 308.966985,350.352794 L43.1894621,350.352794 C34.9311348,350.352794 27.6872755,342.640789 27.6872755,333.853273 L27.6872755,63.4328875 C27.6872755,55.2356523 34.3509705,49.0527093 43.1894621,49.0527093 L43.1894621,49.0527093 Z" id="path-7"></path>
        <polygon id="path-9" points="0.140110431 0.0508797396 27.8473602 0.0508797396 27.8473602 269.736994 0.140110431 269.736994"></polygon>
        <linearGradient x1="4.24651779%" y1="87.2468815%" x2="4.24651779%" y2="18.9262573%" id="linearGradient-11">
            <stop stop-color="#249184" offset="0%"></stop>
            <stop stop-color="#3FB5AF" offset="100%"></stop>
        </linearGradient>
        <path d="M267.888052,28.4983613 L2.21652327,28.4983613 C1.49646636,28.4983613 0.779856604,28.4787325 0.0671673717,28.4399696 L0.0671673717,0.0134277482 C0.772962216,0.129266047 1.49082433,0.189462112 2.21652327,0.189462112 L267.888052,0.189462112 L267.888052,28.4983613 L267.888052,28.4983613 Z" id="path-12"></path>
        <linearGradient x1="11.5216458%" y1="95.6380306%" x2="86.9972899%" y2="95.6380306%" id="linearGradient-14">
            <stop stop-color="#249184" offset="0%"></stop>
            <stop stop-color="#E15F38" offset="100%"></stop>
        </linearGradient>
        <polygon id="path-15" points="0.0897797272 0.0226516037 27.9074824 0.0226516037 27.9074824 160.422236 0.0897797272 160.422236"></polygon>
        <linearGradient x1="94.2728796%" y1="45.9937409%" x2="94.2728796%" y2="87.8107286%" id="linearGradient-17">
            <stop stop-color="#B1343A" offset="0%"></stop>
            <stop stop-color="#E15F38" offset="100%"></stop>
        </linearGradient>
        <polygon id="path-18" points="0.190604731 0.12748728 157.596262 0.12748728 157.596262 28.3239831 0.190604731 28.3239831"></polygon>
        <linearGradient x1="86.34263%" y1="38.4158329%" x2="43.4002613%" y2="38.4158329%" id="linearGradient-20">
            <stop stop-color="#B1343A" offset="0%"></stop>
            <stop stop-color="#BA503D" offset="100%"></stop>
        </linearGradient>
        <polygon id="path-21" points="0.0274884582 0.0225147477 27.6065055 0.0225147477 27.6065055 50.4283354 0.0274884582 50.4283354"></polygon>
        <linearGradient x1="35.3073162%" y1="46.1281791%" x2="35.3073162%" y2="58.7012386%" id="linearGradient-23">
            <stop stop-color="#BA503D" offset="0%"></stop>
            <stop stop-color="#DF5430" offset="100%"></stop>
        </linearGradient>
        <path d="M0.067197776,49.1879462 L0.067197776,21.0793018 C0.779054848,21.0463749 1.4959528,21.0297315 2.21752661,21.0297315 L250.636232,21.0297315 C255.544947,8.76105995 267.376673,0.0832597456 281.176801,0.0832597456 C299.36937,0.0832597456 314.167632,15.140569 314.167632,33.6469828 C314.167632,52.1584002 299.36937,67.2157095 281.176801,67.2157095 C268.451837,67.2157095 257.408456,59.8338252 251.909712,49.0628789 L2.21752661,49.0628789 C1.484959,49.0628789 0.76733084,49.1053593 0.067197776,49.1879462 L0.067197776,49.1879462 Z M281.176801,17.6039769 C272.480426,17.6039769 265.413187,24.7873875 265.413187,33.6469828 C265.413187,42.5115817 272.480426,49.6933245 281.176801,49.6933245 C289.894484,49.6933245 296.95025,42.5115817 296.95025,33.6469828 C296.95025,24.7873875 289.894484,17.6039769 281.176801,17.6039769 Z" id="path-24"></path>
        <linearGradient x1="101.548008%" y1="9.4529907%" x2="13.0322575%" y2="9.4529907%" id="linearGradient-26">
            <stop stop-color="#2270A8" offset="0%"></stop>
            <stop stop-color="#3FB5AF" offset="100%"></stop>
        </linearGradient>
        <path d="M0.191874357,46.3270857 L0.191874357,18.3320055 L56.6596569,18.3320055 C62.1685886,7.57299432 73.2423136,0.194910817 86.0033851,0.194910817 C104.240529,0.194910817 119.073405,15.2325442 119.073405,33.716059 C119.073405,52.1995739 104.240529,67.2355418 86.0033851,67.2355418 C72.1743728,67.2355418 60.3136575,58.573372 55.3846998,46.3270857 L0.191874357,46.3270857 Z M86.0033851,17.6924605 C77.2709151,17.6924605 70.1978607,24.8690208 70.1978607,33.716059 C70.1978607,42.5630973 77.2709151,49.7396575 86.0033851,49.7396575 C94.7259973,49.7396575 101.812195,42.5630973 101.812195,33.716059 C101.812195,24.8690208 94.7259973,17.6924605 86.0033851,17.6924605 Z" id="path-27"></path>
        <linearGradient x1="42.5824442%" y1="67.0269317%" x2="77.7259108%" y2="67.0269317%" id="linearGradient-29">
            <stop stop-color="#DF5430" offset="0%"></stop>
            <stop stop-color="#F0A44C" offset="100%"></stop>
        </linearGradient>
    </defs>
    <g id="no-text" stroke="none" stroke-width="1" fill="none" fill-rule="evenodd">
        <g id="Logo" transform="translate(189.000000, 1.000000)">
            <g id="atom" transform="translate(288.000000, 0.000000)" fill-rule="nonzero">
                <g id="Group">
                    <g id="Oval">
                        <use fill="#FFFFFF" xlink:href="#path-2"></use>
                        <use fill="url(#linearGradient-1)" xlink:href="#path-2"></use>
                    </g>
                    <g id="Path">
                        <use fill="#FFFFFF" xlink:href="#path-4"></use>
                        <use fill="url(#linearGradient-3)" xlink:href="#path-4"></use>
                    </g>
                    <g id="Path">
                        <use fill="#FFFFFF" xlink:href="#path-6"></use>
                        <use fill="url(#linearGradient-5)" xlink:href="#path-6"></use>
                    </g>
                </g>
            </g>
            <g id="Center" transform="translate(0.000000, 195.000000)">
                <g id="-Gumroad_Logo_Color" transform="translate(0.569988, 0.000000)">
                    <g id="Group-8">
                        <mask id="mask-8" fill="white">
                            <use xlink:href="#path-7"></use>
                        </mask>
                        <g id="Clip-2"></g>
                        <polygon id="Fill-1" fill="#3EB5AF" mask="url(#mask-8)" points="0.139304985 64.9936304 42.0733833 64.9936304 42.0733833 7.81641426 0.139304985 7.81641426"></polygon>
                        <polygon id="Fill-3" fill="#229183" mask="url(#mask-8)" points="0.139304985 378.381135 42.0733833 378.381135 42.0733833 332.731072 0.139304985 332.731072"></polygon>
                        <polygon id="Fill-4" fill="#E15E38" mask="url(#mask-8)" points="307.934489 378.381135 355.122824 378.381135 355.122824 332.731072 307.934489 332.731072"></polygon>
                        <polygon id="Fill-5" fill="#B03439" mask="url(#mask-8)" points="307.934489 174.559117 355.122824 174.559117 355.122824 117.3819 307.934489 117.3819"></polygon>
                        <polygon id="Fill-6" fill="#B94F3C" mask="url(#mask-8)" points="99.6489531 174.559117 152.334099 174.559117 152.334099 117.3819 99.6489531 117.3819"></polygon>
                        <polygon id="Fill-7" fill="#DF542F" mask="url(#mask-8)" points="99.6489531 279.905928 152.334099 279.905928 152.334099 222.730379 99.6489531 222.730379"></polygon>
                    </g>
                    <g id="Group-11" transform="translate(0.000000, 64.345806)">
                        <mask id="mask-10" fill="white">
                            <use xlink:href="#path-9"></use>
                        </mask>
                        <g id="Clip-10"></g>
                        <path d="M238.832956,173.878357 C247.584088,173.878357 254.693457,181.055618 254.693457,189.90352 C254.693457,198.751421 247.584088,205.928682 238.832956,205.928682 C230.071933,205.928682 222.975752,198.751421 222.975752,189.90352 C222.975752,181.055618 230.071933,173.878357 238.832956,173.878357 Z M324.562407,-45.8834047 C333.330024,-45.8834047 340.426205,-38.7094752 340.426205,-29.8615734 C340.426205,-21.0086746 333.330024,-13.8364107 324.562407,-13.8364107 C315.81622,-13.8364107 308.7085,-21.0086746 308.7085,-29.8615734 C308.7085,-38.7094752 315.81622,-45.8834047 324.562407,-45.8834047 Z M44.0052813,-14.4660242 L295.127678,-14.4660242 C300.65792,-3.70929412 311.764556,3.66284702 324.562407,3.66284702 C342.859181,3.66284702 357.742206,-11.3745886 357.742206,-29.8615734 C357.742206,-48.3435612 342.859181,-63.3809968 324.562407,-63.3809968 C310.683233,-63.3809968 298.783736,-54.7146502 293.846904,-42.4621716 L44.0052813,-42.4621716 C19.7233195,-42.4621716 0.70621318,-23.8535948 0.70621318,-0.101508827 L0.70621318,270.024336 C0.70621318,294.13287 20.53596,314.503698 44.0052813,314.503698 L311.319499,314.503698 C334.834974,314.503698 353.969114,294.549281 353.969114,270.024336 L353.969114,109.784369 C353.969114,85.6558474 334.834974,66.0278964 311.319499,66.0278964 L152.740866,66.0278964 C128.528135,66.0278964 108.070364,86.0655958 108.070364,109.784369 L108.070364,160.143455 C108.070364,183.509112 128.109452,202.515777 152.740866,202.515777 L208.114156,202.515777 C213.05923,214.763259 224.958726,223.426274 238.832956,223.426274 C257.12973,223.426274 272.011106,208.388839 272.011106,189.90352 C272.011106,171.4182 257.12973,156.379099 238.832956,156.379099 C226.030159,156.379099 214.920226,163.757903 209.393282,174.517964 L152.740866,174.517964 C144.583142,174.517964 135.775965,169.021339 135.775965,160.143455 L135.775965,109.784369 C135.775965,101.534433 143.864458,94.0257094 152.740866,94.0257094 L311.319499,94.0257094 C319.696455,94.0257094 326.261864,100.946461 326.261864,109.784369 L326.261864,270.024336 C326.261864,278.957186 319.41953,286.505885 311.319499,286.505885 L44.0052813,286.505885 C35.6992053,286.505885 28.4134629,278.802281 28.4134629,270.024336 L28.4134629,-0.101508827 C28.4134629,-8.28981561 35.1156866,-14.4660242 44.0052813,-14.4660242 L44.0052813,-14.4660242 Z" id="Fill-9" fill="url(#linearGradient-11)" mask="url(#mask-10)"></path>
                    </g>
                    <g id="Group-14" transform="translate(40.596099, 349.880323)">
                        <mask id="mask-13" fill="white">
                            <use xlink:href="#path-12"></use>
                        </mask>
                        <g id="Clip-13"></g>
                        <path d="M195.84695,-113.68948 C204.544306,-113.68948 211.609986,-106.432472 211.609986,-97.4862607 C211.609986,-88.540049 204.544306,-81.2830411 195.84695,-81.2830411 C187.139765,-81.2830411 180.087191,-88.540049 180.087191,-97.4862607 C180.087191,-106.432472 187.139765,-113.68948 195.84695,-113.68948 Z M281.04958,-335.893034 C289.763318,-335.893034 296.815892,-328.639395 296.815892,-319.693183 C296.815892,-310.741919 289.763318,-303.489963 281.04958,-303.489963 C272.35714,-303.489963 265.293098,-310.741919 265.293098,-319.693183 C265.293098,-328.639395 272.35714,-335.893034 281.04958,-335.893034 Z M2.21652327,-304.126573 L251.795733,-304.126573 C257.29199,-293.250323 268.330374,-285.79627 281.04958,-285.79627 C299.233918,-285.79627 314.025483,-301.000788 314.025483,-319.693183 C314.025483,-338.380526 299.233918,-353.585044 281.04958,-353.585044 C267.255696,-353.585044 255.429324,-344.822405 250.522829,-332.433788 L2.21652327,-332.433788 C-21.9162219,-332.433788 -40.8164651,-313.618449 -40.8164651,-289.602452 L-40.8164651,-16.475215 C-40.8164651,7.90119091 -21.1085752,28.4983613 2.21652327,28.4983613 L267.888052,28.4983613 C291.259021,28.4983613 310.275578,8.32222873 310.275578,-16.475215 L310.275578,-178.495622 C310.275578,-202.892238 291.259021,-222.738277 267.888052,-222.738277 L110.28391,-222.738277 C86.2199701,-222.738277 65.8879152,-202.477937 65.8879152,-178.495622 L65.8879152,-127.576992 C65.8879152,-103.951718 85.8038601,-84.7338671 110.28391,-84.7338671 L165.316922,-84.7338671 C170.231608,-72.3503026 182.05798,-63.5910317 195.84695,-63.5910317 C214.031287,-63.5910317 228.821215,-78.7955496 228.821215,-97.4862607 C228.821215,-116.176972 214.031287,-131.383174 195.84695,-131.383174 C183.122829,-131.383174 172.081168,-123.922384 166.588188,-113.042766 L110.28391,-113.042766 C102.176316,-113.042766 93.4232612,-118.600466 93.4232612,-127.576992 L93.4232612,-178.495622 C93.4232612,-186.837224 101.462049,-194.429378 110.28391,-194.429378 L267.888052,-194.429378 C276.21353,-194.429378 282.738594,-187.431729 282.738594,-178.495622 L282.738594,-16.475215 C282.738594,-7.44311157 275.938307,0.189462112 267.888052,0.189462112 L2.21652327,0.189462112 C-6.03851054,0.189462112 -13.2794809,-7.59973764 -13.2794809,-16.475215 L-13.2794809,-289.602452 C-13.2794809,-297.88174 -6.61844346,-304.126573 2.21652327,-304.126573 L2.21652327,-304.126573 Z" id="Fill-12" fill="url(#linearGradient-14)" mask="url(#mask-13)"></path>
                    </g>
                    <g id="Group-17" transform="translate(323.331763, 173.294956)">
                        <mask id="mask-16" fill="white">
                            <use xlink:href="#path-15"></use>
                        </mask>
                        <g id="Clip-16"></g>
                        <path d="M-87.6876581,64.1804848 C-78.9016396,64.1804848 -71.7639306,71.3648949 -71.7639306,80.2216104 C-71.7639306,89.0783258 -78.9016396,96.262736 -87.6876581,96.262736 C-96.4836061,96.262736 -103.608076,89.0783258 -103.608076,80.2216104 C-103.608076,71.3648949 -96.4836061,64.1804848 -87.6876581,64.1804848 Z M-1.61645214,-155.800186 C7.18611557,-155.800186 14.3105852,-148.61911 14.3105852,-139.762395 C14.3105852,-130.900677 7.18611557,-123.721269 -1.61645214,-123.721269 C-10.3975058,-123.721269 -17.5335599,-130.900677 -17.5335599,-139.762395 C-17.5335599,-148.61911 -10.3975058,-155.800186 -1.61645214,-155.800186 Z M-283.291999,-124.35151 L-31.1685205,-124.35151 C-25.6162335,-113.584065 -14.4653214,-106.20458 -1.61645214,-106.20458 C16.7532605,-106.20458 31.6956151,-121.256995 31.6956151,-139.762395 C31.6956151,-158.262793 16.7532605,-173.315207 -1.61645214,-173.315207 C-15.5509549,-173.315207 -27.4978878,-164.640228 -32.4544004,-152.375544 L-283.291999,-152.375544 C-307.670759,-152.375544 -326.763676,-133.748431 -326.763676,-109.972685 L-326.763676,160.422236 C-326.763676,184.554785 -306.854879,204.945905 -283.291999,204.945905 L-14.9121523,204.945905 C8.69706581,204.945905 27.9074824,184.971611 27.9074824,160.422236 L27.9074824,0.0226516037 C27.9074824,-24.1299048 8.69706581,-43.7774076 -14.9121523,-43.7774076 L-174.122948,-43.7774076 C-198.432201,-43.7774076 -218.971526,-23.7197482 -218.971526,0.0226516037 L-218.971526,50.4319013 C-218.971526,73.8208328 -198.852553,92.8464314 -174.122948,92.8464314 L-118.528916,92.8464314 C-113.564129,105.106113 -101.617196,113.777758 -87.6876581,113.777758 C-69.3179454,113.777758 -54.3772458,98.725343 -54.3772458,80.2216104 C-54.3772458,61.7178777 -69.3179454,46.6637957 -87.6876581,46.6637957 C-100.541492,46.6637957 -111.695714,54.0499496 -117.244691,64.8207293 L-174.122948,64.8207293 C-182.313192,64.8207293 -191.155478,59.3186282 -191.155478,50.4319013 L-191.155478,0.0226516037 C-191.155478,-8.23550192 -183.034741,-15.7517055 -174.122948,-15.7517055 L-14.9121523,-15.7517055 C-6.50180275,-15.7517055 0.0897797272,-8.82406001 0.0897797272,0.0226516037 L0.0897797272,160.422236 C0.0897797272,169.363984 -6.77983084,176.920203 -14.9121523,176.920203 L-283.291999,176.920203 C-291.631187,176.920203 -298.945973,169.208925 -298.945973,160.422236 L-298.945973,-109.972685 C-298.945973,-118.169149 -292.217032,-124.35151 -283.291999,-124.35151 L-283.291999,-124.35151 Z" id="Fill-15" fill="url(#linearGradient-17)" mask="url(#mask-16)"></path>
                    </g>
                    <g id="Group-20" transform="translate(151.247413, 129.422815)">
                        <mask id="mask-19" fill="white">
                            <use xlink:href="#path-18"></use>
                        </mask>
                        <g id="Clip-19"></g>
                        <path d="M85.645888,108.743295 C94.3322901,108.743295 101.389072,115.971488 101.389072,124.882178 C101.389072,133.792868 94.3322901,141.021061 85.645888,141.021061 C76.9496688,141.021061 69.9059767,133.792868 69.9059767,124.882178 C69.9059767,115.971488 76.9496688,108.743295 85.645888,108.743295 Z M170.741215,-112.577978 C179.443979,-112.577978 186.487671,-105.353139 186.487671,-96.4424496 C186.487671,-87.5267273 179.443979,-80.3035665 170.741215,-80.3035665 C162.059721,-80.3035665 155.004576,-87.5267273 155.004576,-96.4424496 C155.004576,-105.353139 162.059721,-112.577978 170.741215,-112.577978 Z M-107.740683,-80.9376479 L141.524209,-80.9376479 C147.013544,-70.1045841 158.038027,-62.6801275 170.741215,-62.6801275 C188.902651,-62.6801275 203.675588,-77.8242744 203.675588,-96.4424496 C203.675588,-115.055592 188.902651,-130.199739 170.741215,-130.199739 C156.964702,-130.199739 145.153224,-121.471893 140.252909,-109.132466 L-107.740683,-109.132466 C-131.843035,-109.132466 -150.719476,-90.3918362 -150.719476,-66.4711966 L-150.719476,205.571561 C-150.719476,229.851178 -131.036406,250.366565 -107.740683,250.366565 L157.596262,250.366565 C180.937798,250.366565 199.930406,230.270544 199.930406,205.571561 L199.930406,44.194472 C199.930406,19.8947255 180.937798,0.12748728 157.596262,0.12748728 L0.190604731,0.12748728 C-23.843029,0.12748728 -44.1494779,20.3073817 -44.1494779,44.194472 L-44.1494779,94.9109248 C-44.1494779,118.442393 -24.258615,137.583937 0.190604731,137.583937 L55.1543094,137.583937 C60.0628056,149.918331 71.8742837,158.642822 85.645888,158.642822 C103.807324,158.642822 118.578625,143.498675 118.578625,124.882178 C118.578625,106.26568 103.807324,91.1198557 85.645888,91.1198557 C72.9377912,91.1198557 61.9100363,98.5510221 56.4239737,109.387441 L0.190604731,109.387441 C-7.90677789,109.387441 -16.6488097,103.851809 -16.6488097,94.9109248 L-16.6488097,44.194472 C-16.6488097,35.8859918 -8.620146,28.3239831 0.190604731,28.3239831 L157.596262,28.3239831 C165.911254,28.3239831 172.428101,35.2938469 172.428101,44.194472 L172.428101,205.571561 C172.428101,214.567801 165.636379,222.170069 157.596262,222.170069 L-107.740683,222.170069 C-115.98532,222.170069 -123.217171,214.411797 -123.217171,205.571561 L-123.217171,-66.4711966 C-123.217171,-74.7176107 -116.564523,-80.9376479 -107.740683,-80.9376479 L-107.740683,-80.9376479 Z" id="Fill-18" fill="url(#linearGradient-20)" mask="url(#mask-19)"></path>
                    </g>
                    <g id="Group-23" transform="translate(106.340224, 173.294956)">
                        <mask id="mask-22" fill="white">
                            <use xlink:href="#path-21"></use>
                        </mask>
                        <g id="Clip-22"></g>
                        <path d="M130.192639,64.1759837 C138.903788,64.1759837 145.980674,71.3599051 145.980674,80.2160181 C145.980674,89.0721311 138.903788,96.2560525 130.192639,96.2560525 C121.471644,96.2560525 114.407885,89.0721311 114.407885,80.2160181 C114.407885,71.3599051 121.471644,64.1759837 130.192639,64.1759837 Z M215.530401,-155.789723 C224.257958,-155.789723 231.321718,-148.609136 231.321718,-139.753023 C231.321718,-130.891908 224.257958,-123.712988 215.530401,-123.712988 C206.824173,-123.712988 199.748928,-130.891908 199.748928,-139.753023 C199.748928,-148.609136 206.824173,-155.789723 215.530401,-155.789723 Z M-63.7448865,-124.343186 L186.230156,-124.343186 C191.73513,-113.576473 202.791021,-106.197491 215.530401,-106.197491 C233.743578,-106.197491 248.558603,-121.248882 248.558603,-139.753023 C248.558603,-158.252162 233.743578,-173.303553 215.530401,-173.303553 C201.714639,-173.303553 189.86951,-164.629164 184.955234,-152.365315 L-63.7448865,-152.365315 C-87.9159063,-152.365315 -106.846125,-133.739469 -106.846125,-109.96534 L-106.846125,160.411189 C-106.846125,184.542096 -87.1069787,204.931829 -63.7448865,204.931829 L202.347998,204.931829 C225.756033,204.931829 244.802751,184.958893 244.802751,160.411189 L244.802751,0.0225147477 C244.802751,-24.1283987 225.756033,-43.774565 202.347998,-43.774565 L44.4938951,-43.774565 C20.39179,-43.774565 0.0274884582,-23.71827 0.0274884582,0.0225147477 L0.0274884582,50.4283354 C0.0274884582,73.8156759 19.97502,92.8399803 44.4938951,92.8399803 L99.6141903,92.8399803 C104.536671,105.098828 116.381799,113.769883 130.192639,113.769883 C148.405816,113.769883 163.219201,98.7184921 163.219201,80.2160181 C163.219201,61.7135441 148.405816,46.6604862 130.192639,46.6604862 C117.448337,46.6604862 106.389164,54.0461376 100.887472,64.8161846 L44.4938951,64.8161846 C36.3734432,64.8161846 27.6065055,59.3144578 27.6065055,50.4283354 L27.6065055,0.0225147477 C27.6065055,-8.23507703 35.6580427,-15.7507693 44.4938951,-15.7507693 L202.347998,-15.7507693 C210.68668,-15.7507693 217.222093,-8.82359508 217.222093,0.0225147477 L217.222093,160.411189 C217.222093,169.352328 210.411021,176.908033 202.347998,176.908033 L-63.7448865,176.908033 C-72.0130128,176.908033 -79.2654673,169.19728 -79.2654673,160.411189 L-79.2654673,-109.96534 C-79.2654673,-118.161246 -72.5938655,-124.343186 -63.7448865,-124.343186 L-63.7448865,-124.343186 Z" id="Fill-21" fill="url(#linearGradient-23)" mask="url(#mask-22)"></path>
                    </g>
                    <g id="Group-26" transform="translate(40.596099, 0.000000)">
                        <mask id="mask-25" fill="white">
                            <use xlink:href="#path-24"></use>
                        </mask>
                        <g id="Clip-25"></g>
                        <path d="M195.935603,237.656178 C204.636896,237.656178 211.705774,244.842924 211.705774,253.70252 C211.705774,262.562115 204.636896,269.748861 195.935603,269.748861 C187.224477,269.748861 180.16871,262.562115 180.16871,253.70252 C180.16871,244.842924 187.224477,237.656178 195.935603,237.656178 Z M281.176801,17.6039769 C289.894484,17.6039769 296.95025,24.7873875 296.95025,33.6469828 C296.95025,42.5115817 289.894484,49.6933245 281.176801,49.6933245 C272.480426,49.6933245 265.413187,42.5115817 265.413187,33.6469828 C265.413187,24.7873875 272.480426,17.6039769 281.176801,17.6039769 Z M2.21752661,49.0628789 L251.909712,49.0628789 C257.408456,59.8338252 268.451837,67.2157095 281.176801,67.2157095 C299.36937,67.2157095 314.167632,52.1584002 314.167632,33.6469828 C314.167632,15.140569 299.36937,0.0832597456 281.176801,0.0832597456 C267.376673,0.0832597456 255.544947,8.76105995 250.636232,21.0297315 L2.21752661,21.0297315 C-21.9261426,21.0297315 -40.8349412,39.6629016 -40.8349412,63.4463786 L-40.8349412,333.929225 C-40.8349412,358.069621 -21.1181303,378.467371 2.21752661,378.467371 L268.009315,378.467371 C291.390863,378.467371 310.416029,358.486582 310.416029,333.929225 L310.416029,173.477483 C310.416029,149.317073 291.390863,129.663181 268.009315,129.663181 L110.333831,129.663181 C86.2589988,129.663181 65.9177403,149.727363 65.9177403,173.477483 L65.9177403,223.903124 C65.9177403,247.299661 85.8427004,266.331446 110.333831,266.331446 L165.391755,266.331446 C170.308666,278.595114 182.140391,287.269579 195.935603,287.269579 C214.128172,287.269579 228.924794,272.212269 228.924794,253.70252 C228.924794,235.19277 214.128172,220.133793 195.935603,220.133793 C183.205722,220.133793 172.159063,227.522349 166.663596,238.296631 L110.333831,238.296631 C102.222568,238.296631 93.4655506,232.792741 93.4655506,223.903124 L93.4655506,173.477483 C93.4655506,165.216644 101.507977,157.697996 110.333831,157.697996 L268.009315,157.697996 C276.338562,157.697996 282.86658,164.627894 282.86658,173.477483 L282.86658,333.929225 C282.86658,342.87388 276.063215,350.432556 268.009315,350.432556 L2.21752661,350.432556 C-6.04124396,350.432556 -13.285492,342.71877 -13.285492,333.929225 L-13.285492,63.4463786 C-13.285492,55.2472501 -6.62143939,49.0628789 2.21752661,49.0628789 L2.21752661,49.0628789 Z" id="Fill-24" fill="url(#linearGradient-26)" mask="url(#mask-25)"></path>
                    </g>
                    <g id="Group-29" transform="translate(150.888156, 220.091906)">
                        <mask id="mask-28" fill="white">
                            <use xlink:href="#path-27"></use>
                        </mask>
                        <g id="Clip-28"></g>
                        <path d="M86.0033851,17.6924605 C94.7259973,17.6924605 101.812195,24.8690208 101.812195,33.716059 C101.812195,42.5630973 94.7259973,49.7396575 86.0033851,49.7396575 C77.2709151,49.7396575 70.1978607,42.5630973 70.1978607,33.716059 C70.1978607,24.8690208 77.2709151,17.6924605 86.0033851,17.6924605 Z M171.453439,-202.047851 C180.192481,-202.047851 187.265535,-194.874622 187.265535,-186.027584 C187.265535,-177.175549 180.192481,-170.003985 171.453439,-170.003985 C162.735756,-170.003985 155.651201,-177.175549 155.651201,-186.027584 C155.651201,-194.874622 162.735756,-202.047851 171.453439,-202.047851 Z M-108.189334,-170.633537 L142.11464,-170.633537 C147.626857,-159.877857 158.697296,-152.506435 171.453439,-152.506435 C189.690583,-152.506435 204.525102,-167.542403 204.525102,-186.027584 C204.525102,-204.507768 189.690583,-219.543735 171.453439,-219.543735 C157.619498,-219.543735 145.758782,-210.878235 140.83804,-198.626952 L-108.189334,-198.626952 C-132.392159,-198.626952 -151.347288,-180.020192 -151.347288,-156.270424 L-151.347288,113.829055 C-151.347288,137.935236 -131.582167,158.304076 -108.189334,158.304076 L158.25369,158.304076 C181.692527,158.304076 200.764308,138.351606 200.764308,113.829055 L200.764308,-46.3952716 C200.764308,-70.5214381 181.692527,-90.1474733 158.25369,-90.1474733 L0.191874357,-90.1474733 C-23.9419456,-90.1474733 -44.3330436,-70.1117296 -44.3330436,-46.3952716 L-44.3330436,3.95889924 C-44.3330436,27.3222752 -24.359264,46.3270857 0.191874357,46.3270857 L55.3846998,46.3270857 C60.3136575,58.573372 72.1743728,67.2355418 86.0033851,67.2355418 C104.240529,67.2355418 119.073405,52.1995739 119.073405,33.716059 C119.073405,15.2325442 104.240529,0.194910817 86.0033851,0.194910817 C73.2423136,0.194910817 62.1685886,7.57299432 56.6596569,18.3320055 L0.191874357,18.3320055 C-7.93926288,18.3320055 -16.7177366,12.8359162 -16.7177366,3.95889924 L-16.7177366,-46.3952716 C-16.7177366,-54.6444019 -8.65560474,-62.152393 0.191874357,-62.152393 L158.25369,-62.152393 C166.603345,-62.152393 173.147357,-55.2323169 173.147357,-46.3952716 L173.147357,113.829055 C173.147357,122.761033 166.327323,130.308996 158.25369,130.308996 L-108.189334,130.308996 C-116.46834,130.308996 -123.730337,122.606143 -123.730337,113.829055 L-123.730337,-156.270424 C-123.730337,-164.457931 -117.049957,-170.633537 -108.189334,-170.633537 L-108.189334,-170.633537 Z" id="Fill-27" fill="url(#linearGradient-29)" mask="url(#mask-28)"></path>
                    </g>
                </g>
            </g>
        </g>
    </g>
</svg>